#define fleeing_ghost_width 9
#define fleeing_ghost_height 9
static unsigned char fleeing_ghost_bits[] = {
   0x38, 0x00, 0x7c, 0x00, 0x56, 0x00, 0xfe, 0x00, 0xd6, 0x00, 0xaa, 0x00,
   0xfe, 0x00, 0xfe, 0x00, 0xaa, 0x00 };
